<svg xmlns="http://www.w3.org/2000/svg" width="112.706" height="26" viewBox="0 0 112.706 26">
  <g id="Grupo_9615" data-name="Grupo 9615" transform="translate(849.835 -2605)">
    <path id="Caminho_1561" data-name="Caminho 1561" d="M-75.457,2626.745q-.9,2.687-2.9,2.686a2.26,2.26,0,0,1-1.745-1,8.659,8.659,0,0,1-1.372-2.726,23.828,23.828,0,0,1-.9-4.019,33.653,33.653,0,0,1-.334-4.843,31.04,31.04,0,0,1,.334-4.98,14,14,0,0,1,.863-3.216,4.182,4.182,0,0,1,1.216-1.726,2.317,2.317,0,0,1,1.392-.51,2.361,2.361,0,0,1,1.824.941A7.937,7.937,0,0,1-75.711,2610a21.353,21.353,0,0,1,.863,4.039,41.1,41.1,0,0,1,.294,5.118,24.91,24.91,0,0,1-.9,7.588m-14.2-3.137a11.12,11.12,0,0,0,2.274,3.98,9.953,9.953,0,0,0,3.608,2.529,12.333,12.333,0,0,0,4.785.883,13.412,13.412,0,0,0,5.333-.98,10.214,10.214,0,0,0,3.784-2.746,11.758,11.758,0,0,0,2.274-4.255,18.854,18.854,0,0,0,.765-5.549,17.223,17.223,0,0,0-.667-4.863,10.853,10.853,0,0,0-2.079-3.96,9.863,9.863,0,0,0-3.608-2.667,12.952,12.952,0,0,0-5.294-.98,13.127,13.127,0,0,0-4.745.843,10.284,10.284,0,0,0-3.8,2.529,11.735,11.735,0,0,0-2.51,4.2,17.124,17.124,0,0,0-.9,5.8,16.369,16.369,0,0,0,.784,5.236" transform="translate(-670.301)" fill="#004c6b"/>
    <path id="Caminho_1562" data-name="Caminho 1562" d="M-566.085,2626.745q-.9,2.687-2.9,2.686a2.26,2.26,0,0,1-1.745-1,8.66,8.66,0,0,1-1.373-2.726,23.815,23.815,0,0,1-.9-4.019,33.659,33.659,0,0,1-.333-4.843,31.048,31.048,0,0,1,.333-4.98,14,14,0,0,1,.862-3.216,4.187,4.187,0,0,1,1.216-1.726,2.318,2.318,0,0,1,1.392-.51,2.361,2.361,0,0,1,1.824.941,7.937,7.937,0,0,1,1.373,2.647,21.373,21.373,0,0,1,.863,4.039,41.107,41.107,0,0,1,.294,5.118,24.9,24.9,0,0,1-.9,7.588m-14.2-3.137a11.116,11.116,0,0,0,2.274,3.98,9.955,9.955,0,0,0,3.608,2.529,12.331,12.331,0,0,0,4.784.883,13.412,13.412,0,0,0,5.334-.98,10.212,10.212,0,0,0,3.784-2.746,11.753,11.753,0,0,0,2.274-4.255,18.828,18.828,0,0,0,.765-5.549,17.245,17.245,0,0,0-.666-4.863,10.847,10.847,0,0,0-2.079-3.96,9.858,9.858,0,0,0-3.608-2.667,12.953,12.953,0,0,0-5.294-.98,13.128,13.128,0,0,0-4.745.843,10.284,10.284,0,0,0-3.8,2.529,11.732,11.732,0,0,0-2.51,4.2,17.127,17.127,0,0,0-.9,5.8,16.357,16.357,0,0,0,.784,5.236m-5.961-18.059v1.255l3.8,1.726-5.059,18.784-5.765-20.393,4.549-.117v-1.255h-13.8v1.176l1.765,1.216,6.392,22.627h7.569l5.8-21.726,1.686-2.078v-1.216Zm-22.745,21.2q-.9,2.687-2.9,2.686a2.26,2.26,0,0,1-1.745-1,8.657,8.657,0,0,1-1.372-2.726,23.807,23.807,0,0,1-.9-4.019,33.607,33.607,0,0,1-.333-4.843,31.005,31.005,0,0,1,.333-4.98,13.981,13.981,0,0,1,.863-3.216,4.182,4.182,0,0,1,1.216-1.726,2.317,2.317,0,0,1,1.392-.51,2.361,2.361,0,0,1,1.823.941,7.925,7.925,0,0,1,1.372,2.647,21.32,21.32,0,0,1,.863,4.039,41.045,41.045,0,0,1,.294,5.118,24.905,24.905,0,0,1-.9,7.588m-14.2-3.137a11.115,11.115,0,0,0,2.275,3.98,9.952,9.952,0,0,0,3.608,2.529,12.334,12.334,0,0,0,4.784.883,13.409,13.409,0,0,0,5.333-.98,10.207,10.207,0,0,0,3.784-2.746,11.767,11.767,0,0,0,2.275-4.255,18.856,18.856,0,0,0,.765-5.549,17.21,17.21,0,0,0-.667-4.863,10.848,10.848,0,0,0-2.078-3.96,9.868,9.868,0,0,0-3.608-2.667,12.955,12.955,0,0,0-5.294-.98,13.129,13.129,0,0,0-4.745.843,10.286,10.286,0,0,0-3.8,2.529,11.743,11.743,0,0,0-2.51,4.2,17.13,17.13,0,0,0-.9,5.8,16.355,16.355,0,0,0,.784,5.236m-12.313-16.687a3.359,3.359,0,0,1,3.157,1.667,8.438,8.438,0,0,1,.961,4.255,9.364,9.364,0,0,1-.98,4.922,3.2,3.2,0,0,1-2.863,1.51,2.51,2.51,0,0,1-.745-.137,3.706,3.706,0,0,1-.706-.294v-11.922Zm-10.745-1.373v1.294l2.235.236v21.294l-2.275.98v1.1H-633.5v-1.216l-3.176-.117v-8.627a5.244,5.244,0,0,0,1.02.294,6.982,6.982,0,0,0,1.412.137,15.064,15.064,0,0,0,3.47-.412,9.186,9.186,0,0,0,3.157-1.392,7.713,7.713,0,0,0,2.314-2.569,7.975,7.975,0,0,0,.9-3.98,7.64,7.64,0,0,0-.51-2.824,5.632,5.632,0,0,0-1.608-2.235,7.573,7.573,0,0,0-2.823-1.451,14.809,14.809,0,0,0-4.157-.51Z" transform="translate(-179.673)" fill="#004c6b"/>
    <path id="Caminho_1563" data-name="Caminho 1563" d="M-834.855,2626.745q-.9,2.687-2.9,2.686a2.26,2.26,0,0,1-1.745-1,8.657,8.657,0,0,1-1.373-2.726,23.838,23.838,0,0,1-.9-4.019,33.667,33.667,0,0,1-.334-4.843,31.051,31.051,0,0,1,.334-4.98,14,14,0,0,1,.863-3.216,4.184,4.184,0,0,1,1.216-1.726,2.317,2.317,0,0,1,1.392-.51,2.361,2.361,0,0,1,1.824.941,7.94,7.94,0,0,1,1.372,2.647,21.344,21.344,0,0,1,.863,4.039,41.072,41.072,0,0,1,.294,5.118,24.907,24.907,0,0,1-.9,7.588m-14.2-3.137a11.118,11.118,0,0,0,2.274,3.98,9.953,9.953,0,0,0,3.608,2.529,12.334,12.334,0,0,0,4.785.883,13.412,13.412,0,0,0,5.333-.98,10.214,10.214,0,0,0,3.784-2.746,11.76,11.76,0,0,0,2.274-4.255,18.85,18.85,0,0,0,.765-5.549,17.218,17.218,0,0,0-.667-4.863,10.852,10.852,0,0,0-2.079-3.96,9.861,9.861,0,0,0-3.608-2.667,12.953,12.953,0,0,0-5.294-.98,13.126,13.126,0,0,0-4.745.843,10.284,10.284,0,0,0-3.8,2.529,11.735,11.735,0,0,0-2.51,4.2,17.125,17.125,0,0,0-.9,5.8,16.37,16.37,0,0,0,.784,5.236" fill="#00a9e4"/>
  </g>
</svg>
