<svg xmlns="http://www.w3.org/2000/svg" width="17.541" height="17.415" viewBox="0 0 17.541 17.415">
  <g id="Grupo_9590" data-name="Grupo 9590" transform="translate(-724.855 -429.677)">
    <g id="Grupo_8538" data-name="Grupo 8538">
      <g id="Grupo_8536" data-name="Grupo 8536">
        <path id="Caminho_1" data-name="Caminho 1" d="M739.4,447.092h-2.164v-2H739.4a1,1,0,0,0,1-1V440.92h2v3.172A3,3,0,0,1,739.4,447.092Z" fill="#430030"/>
      </g>
      <g id="Grupo_8537" data-name="Grupo 8537">
        <path id="Caminho_2" data-name="Caminho 2" d="M726.855,435.85h-2v-3.173a3,3,0,0,1,3-3h2.165v2h-2.165a1,1,0,0,0-1,1Z" fill="#430030"/>
      </g>
    </g>
    <g id="Grupo_8541" data-name="Grupo 8541">
      <g id="Grupo_8539" data-name="Grupo 8539">
        <path id="Caminho_3" data-name="Caminho 3" d="M730.02,447.092h-2.165a3,3,0,0,1-3-3V440.92h2v3.172a1,1,0,0,0,1,1h2.165Z" fill="#430030"/>
      </g>
      <g id="Grupo_8540" data-name="Grupo 8540">
        <path id="Caminho_4" data-name="Caminho 4" d="M742.4,435.85h-2v-3.173a1,1,0,0,0-1-1h-2.164v-2H739.4a3,3,0,0,1,3,3Z" fill="#430030"/>
      </g>
    </g>
  </g>
</svg>
